# xmcd
#
# Track frame offsets:
#	151
#	14149
#	31000
#	48228
#	60290
#	76241
#	90473
#	107778
#	125005
#	136979
#	155256
#	175109
#	188364
#	201314
#	221019
#
# Disc length: 3200 seconds
#
# Revision: 1
# Processed by: cddbd v1.5.2PL0 Copyright (c) Steve Scherf et al.
# Submitted via: audiograbber 1.83.01
#
DISCID=be0c7e0f
DTITLE=Dan Fraley - Kindly Make Mine Country Dan Fraley
DYEAR=2003
DGENRE=
TTITLE0=Kindly Make Mine Country
TTITLE1=Slamming Of The Door
TTITLE2=Crossbar Inn
TTITLE3=Another Hearbreak Song
TTITLE4=Wish You Wore With Me
TTITLE5=Rolling On
TTITLE6=I Can´t Say I Haven´t Tried
TTITLE7=Grandad
TTITLE8=Mind Over Matter
TTITLE9=Chassin´ Rainbows
TTITLE10=When Love Is Gone
TTITLE11=The Way Of Love Today
TTITLE12=It Dosen´t Mean I´m Weak
TTITLE13=Nail Scars In His Hand
TTITLE14=Thou Art Worthy Lord
EXTD=
EXTT0=
EXTT1=
EXTT2=
EXTT3=
EXTT4=
EXTT5=
EXTT6=
EXTT7=
EXTT8=
EXTT9=
EXTT10=
EXTT11=
EXTT12=
EXTT13=
EXTT14=
PLAYORDER=
